HIERARCHY
ROOT root
{
	OFFSET	0	13.1	24.9
	CHANNELS 6  Xposition Yposition Zposition Xrotation Yrotation Zrotation
	JOINT spine_1
	{
		OFFSET	0	9.99999	0
		CHANNELS 3  Xrotation Yrotation Zrotation
		JOINT spine_2
		{
			OFFSET	0	112	-10
			CHANNELS 3  Xrotation Yrotation Zrotation
			JOINT spine_3
			{
				OFFSET	0	206.5	19.3
				CHANNELS 3  Xrotation Yrotation Zrotation
				JOINT spine_4
				{
					OFFSET	0	110.4	14.6
					CHANNELS 3  Xrotation Yrotation Zrotation
					JOINT neck_1
					{
						OFFSET	0	71.8	-50.3
						CHANNELS 3  Xrotation Yrotation Zrotation
						JOINT neck_2
						{
							OFFSET	0	86.2	-25.8
							CHANNELS 3  Xrotation Yrotation Zrotation
							JOINT head_ee
							{
								OFFSET	0	179.8	-8.7
								CHANNELS 3  Xrotation Yrotation Zrotation
								End Site
								{
									OFFSET	1	0	0
								}
							}
						}
					}
					JOINT left_clavicle
					{
						OFFSET	-43.2	22.4	-70.8
						CHANNELS 3  Xrotation Yrotation Zrotation
						JOINT left_shoulder
						{
							OFFSET	-93.9	-5.79999	48.7
							CHANNELS 3  Xrotation Yrotation Zrotation
							JOINT left_elbow
							{
								OFFSET	-291.4	-30.8	15.2
								CHANNELS 3  Xrotation Yrotation Zrotation
								JOINT left_lowarm_twist
								{
									OFFSET	-110.7	-3.89999	13.6
									CHANNELS 3  Xrotation Yrotation Zrotation
									JOINT left_hand
									{
										OFFSET	-110.7	-3.89999	13.6
										CHANNELS 3  Xrotation Yrotation Zrotation
										JOINT left_ee
										{
											OFFSET	-80.8	-5.10001	12.1
											CHANNELS 3  Xrotation Yrotation Zrotation
											End Site
											{
												OFFSET	1	0	0
											}
										}
									}
								}
							}
						}
					}
					JOINT right_clavicle
					{
						OFFSET	43.2	22.4	-70.8
						CHANNELS 3  Xrotation Yrotation Zrotation
						JOINT right_shoulder
						{
							OFFSET	93.9	-5.79999	48.7
							CHANNELS 3  Xrotation Yrotation Zrotation
							JOINT right_elbow
							{
								OFFSET	291.4	-30.8	15.2
								CHANNELS 3  Xrotation Yrotation Zrotation
								JOINT right_lowarm_twist
								{
									OFFSET	110.7	-3.89999	13.6
									CHANNELS 3  Xrotation Yrotation Zrotation
									JOINT right_hand
									{
										OFFSET	110.7	-3.89999	13.6
										CHANNELS 3  Xrotation Yrotation Zrotation
										JOINT right_ee
										{
											OFFSET	80.8	-5.10001	12.1
											CHANNELS 3  Xrotation Yrotation Zrotation
											End Site
											{
												OFFSET	1	0	0
											}
										}
									}
								}
							}
						}
					}
				}
			}
		}
	}
	JOINT left_hip
	{
		OFFSET	-82.8	-127.5	0.300001
		CHANNELS 3  Xrotation Yrotation Zrotation
		JOINT left_knee
		{
			OFFSET	-28.2	-396.7	2.2
			CHANNELS 3  Xrotation Yrotation Zrotation
			JOINT left_ankle
			{
				OFFSET	-11.7	-411.3	35.4
				CHANNELS 3  Xrotation Yrotation Zrotation
				JOINT left_toes
				{
					OFFSET	0	-60	-88.6
					CHANNELS 3  Xrotation Yrotation Zrotation
					JOINT left_foot_ee
					{
						OFFSET	-22.5	-16.5	-42.2
						CHANNELS 3  Xrotation Yrotation Zrotation
						End Site
						{
							OFFSET	1	0	0
						}
					}
				}
			}
		}
	}
	JOINT right_hip
	{
		OFFSET	82.8	-127.5	0.300001
		CHANNELS 3  Xrotation Yrotation Zrotation
		JOINT right_knee
		{
			OFFSET	28.2	-396.7	2.2
			CHANNELS 3  Xrotation Yrotation Zrotation
			JOINT right_ankle
			{
				OFFSET	11.7	-411.3	35.4
				CHANNELS 3  Xrotation Yrotation Zrotation
				JOINT right_toes
				{
					OFFSET	0	-60	-88.6
					CHANNELS 3  Xrotation Yrotation Zrotation
					JOINT right_foot_ee
					{
						OFFSET	22.5	-16.5	-42.2
						CHANNELS 3  Xrotation Yrotation Zrotation
						End Site
						{
							OFFSET	1	0	0
						}
					}
				}
			}
		}
	}
}
MOTION
Frames: 15
Frame Time: 0.02
1184.7718635 739.225 -1814.701746 -11.3009683128 16.4488406539 5.88318156792 3.62054 0.337709 -0.262886 3.62051 0.353753 -0.240864 3.61903 0.385515 -0.185834 3.61916 0.351328 -0.244387 1.27697 6.74947 -6.46539 1.74274 17.2849 -6.52675 -0.0 0.0 -0.0 -4.54123 15.57 -5.4246 -3.54283 -26.9026 80.9801 0.342982 -9.64286 0.0289302 24.5884 0.20168 -3.11047 2.46613 -19.6322 8.0337 -0.0 0.0 -0.0 11.2765 21.9796 -22.128 -70.3847 63.262 -5.04334 0.860415 23.0847 -0.175719 -0.0448306 0.00158164 -0.00550692 2.57988 28.518 -4.39864 0.0 0.0 0.0 35.7573 6.6878 -6.71503 -61.0005 -2.30898 8.63474 20.2378 -1.12323 -2.78871 24.0342 -0.0 -0.0 -0.0 0.0 -0.0 21.072 13.0242 -8.01918 -5.96469 -0.199226 -0.893313 10.9458 7.64043 1.60885 -7.32458 0.0 0.0 0.0 0.0 0.0 
1183.99358819 737.998 -1833.60590959 -11.7612685347 17.4624744539 6.74639036721 3.92926 0.240067 -0.169713 3.92924 0.25038 -0.154093 3.92857 0.269807 -0.116785 3.92864 0.247977 -0.157931 -0.2028 8.11733 -4.39065 0.139998 18.0549 -3.88297 -0.0 0.0 -0.0 -4.85287 15.599 -5.92271 -3.77416 -26.5395 80.9369 0.299938 -8.4514 0.0221614 24.6742 0.200036 -3.12131 2.44531 -19.9698 7.73316 -0.0 0.0 -0.0 11.5855 22.3078 -22.8035 -69.9809 62.7565 -3.10878 0.851404 22.8679 -0.172201 -0.64792 0.0232791 -0.0794691 2.39079 28.2388 -3.33695 0.0 0.0 0.0 41.3366 7.55032 -6.02952 -62.5436 -2.48082 8.79957 20.4502 -1.32305 -2.81648 23.3971 -0.0 -0.0 -0.0 0.0 -0.0 19.9525 12.7872 -9.12427 -6.94876 -0.223106 -1.04244 11.8194 7.66079 1.73144 -6.42309 0.0 0.0 0.0 0.0 0.0 
1186.09826876 737.998 -1834.70244445 -11.739960673 17.1335510918 6.67472948967 3.92926 0.240067 -0.169713 3.92924 0.25038 -0.154093 3.92857 0.269807 -0.116785 3.92864 0.247977 -0.157931 -0.2028 8.11733 -4.39065 0.139998 18.0549 -3.88297 -0.0 0.0 -0.0 -4.85287 15.599 -5.92271 -3.77416 -26.5395 80.9369 0.299938 -8.4514 0.0221614 24.6742 0.200036 -3.12131 2.44531 -19.9698 7.73316 -0.0 0.0 -0.0 11.5855 22.3078 -22.8035 -69.9809 62.7565 -3.10878 0.851404 22.8679 -0.172201 -0.64792 0.0232791 -0.0794691 2.39079 28.2388 -3.33695 0.0 0.0 0.0 41.3366 7.55032 -6.02952 -62.5436 -2.48082 8.79957 20.4502 -1.32305 -2.81648 23.3971 -0.0 -0.0 -0.0 0.0 -0.0 19.9525 12.7872 -9.12427 -6.94876 -0.223106 -1.04244 11.8194 7.66079 1.73144 -6.42309 0.0 0.0 0.0 0.0 0.0 
1155.58152058 730.601 -1853.92818518 -13.1153947422 19.6122756942 6.79472069395 4.3437 0.115022 -0.125979 4.3437 0.122805 -0.118404 4.34345 0.137719 -0.100668 4.34345 0.120092 -0.121155 -4.24477 9.56605 -1.77573 -4.11506 18.8694 -0.280518 -0.0 0.0 -0.0 -5.48832 15.6506 -6.94343 -1.55819 -26.2054 84.1656 0.350791 -9.85815 0.0302528 24.9089 0.195456 -3.15093 2.38005 -19.396 7.57164 -0.0 0.0 -0.0 12.2084 22.6172 -24.2023 -67.9644 63.3581 0.840391 0.841807 22.6363 -0.168489 -1.75103 0.0649782 -0.214156 1.8758 26.739 -0.776824 0.0 0.0 0.0 49.11 6.18736 -9.25956 -66.3791 -2.92673 9.1889 20.8714 -1.69031 -2.87131 22.7783 -0.0 -0.0 -0.0 0.0 -0.0 19.2888 12.565 -8.20651 -8.69245 -0.259114 -1.30758 12.9009 6.32695 1.87015 -5.11594 0.0 0.0 0.0 0.0 0.0 
1153.53481354 731.777 -1871.06228574 -13.0302567897 16.3209929521 5.12550323457 4.41213 0.0635204 -0.124233 4.41213 0.0712969 -0.119939 4.41198 0.0867639 -0.109273 4.41197 0.0684173 -0.121605 -5.64745 9.95368 -0.930603 -5.58427 19.0619 0.87691 -0.0 0.0 -0.0 -5.71824 15.4178 -7.38135 -0.550695 -26.0082 84.8405 0.370414 -10.3979 0.0337036 25.0826 0.191987 -3.17286 2.36339 -19.2466 7.53132 -0.0 0.0 -0.0 12.3505 22.6298 -24.5282 -67.0696 63.6869 2.23869 0.843247 22.6711 -0.169044 -2.11463 0.0792909 -0.258373 1.71343 26.332 0.0737043 0.0 0.0 0.0 51.8774 5.26352 -10.2292 -66.8823 -2.98715 9.23775 20.9761 -1.77076 -2.88484 22.5875 -0.0 -0.0 -0.0 0.0 -0.0 18.4587 12.6866 -7.54334 -9.53885 -0.273679 -1.43665 13.2678 5.92492 1.91714 -4.68658 0.0 0.0 0.0 0.0 0.0 
1137.65759546 729.794 -1897.924012 -10.4547369898 12.4826594893 3.65547462709 4.1866 0.0442023 -0.22064 4.18663 0.0581526 -0.21738 4.18639 0.0876464 -0.207253 4.18633 0.0538147 -0.218494 -9.49669 9.1144 2.40128 -9.54821 15.4923 4.55873 -0.0 0.0 -0.0 -8.12576 15.2858 -11.4393 0.5807 -27.4254 85.2724 0.612051 -16.867 0.0907464 25.0125 0.193396 -3.164 2.59092 -21.2309 8.09228 -0.0 0.0 -0.0 12.4482 20.0388 -24.9631 -61.3403 65.8937 2.51687 0.935872 24.8722 -0.206388 -3.42576 0.133229 -0.417058 1.15961 22.88 2.0893 0.0 0.0 0.0 52.7718 -2.06742 -8.75355 -55.5197 -1.73611 8.01367 10.5659 -0.45567 -1.51475 20.9252 -0.0 -0.0 -0.0 0.0 -0.0 17.7439 14.1607 -6.93963 -11.6491 -0.301675 -1.75921 17.1339 -2.28937 2.37859 -3.40172 0.0 0.0 0.0 0.0 0.0 
1126.72198888 729.794 -1891.6724559 -10.5185697554 13.9509558388 3.93464010359 4.1866 0.0442023 -0.22064 4.18663 0.0581526 -0.21738 4.18639 0.0876464 -0.207253 4.18633 0.0538147 -0.218494 -9.49669 9.1144 2.40128 -9.54821 15.4923 4.55873 -0.0 0.0 -0.0 -8.12576 15.2858 -11.4393 0.5807 -27.4254 85.2724 0.612051 -16.867 0.0907464 25.0125 0.193396 -3.164 2.59092 -21.2309 8.09228 -0.0 0.0 -0.0 12.4482 20.0388 -24.9631 -61.3403 65.8937 2.51687 0.935872 24.8722 -0.206388 -3.42576 0.133229 -0.417058 1.15961 22.88 2.0893 0.0 0.0 0.0 52.7718 -2.06742 -8.75355 -55.5197 -1.73611 8.01367 10.5659 -0.45567 -1.51475 20.9252 -0.0 -0.0 -0.0 0.0 -0.0 17.7439 14.1607 -6.93963 -11.6491 -0.301675 -1.75921 17.1339 -2.28937 2.37859 -3.40172 0.0 0.0 0.0 0.0 0.0 
1115.54395818 729.794 -1884.88221643 -10.5931570677 15.4751472134 4.2282894796 4.1866 0.0442023 -0.22064 4.18663 0.0581526 -0.21738 4.18639 0.0876464 -0.207253 4.18633 0.0538147 -0.218494 -9.49669 9.1144 2.40128 -9.54821 15.4923 4.55873 -0.0 0.0 -0.0 -8.12576 15.2858 -11.4393 0.5807 -27.4254 85.2724 0.612051 -16.867 0.0907464 25.0125 0.193396 -3.164 2.59092 -21.2309 8.09228 -0.0 0.0 -0.0 12.4482 20.0388 -24.9631 -61.3403 65.8937 2.51687 0.935872 24.8722 -0.206388 -3.42576 0.133229 -0.417058 1.15961 22.88 2.0893 0.0 0.0 0.0 52.7718 -2.06742 -8.75355 -55.5197 -1.73611 8.01367 10.5659 -0.45567 -1.51475 20.9252 -0.0 -0.0 -0.0 0.0 -0.0 17.7439 14.1607 -6.93963 -11.6491 -0.301675 -1.75921 17.1339 -2.28937 2.37859 -3.40172 0.0 0.0 0.0 0.0 0.0 
1093.15412181 708.899 -1905.65884111 -10.4854428629 14.3740775233 2.49991689723 4.068 0.122132 -0.28706 4.06803 0.140151 -0.278706 4.06733 0.17787 -0.256285 4.06726 0.135162 -0.281159 -9.421 8.32105 7.81399 -9.28442 10.2763 9.61858 -0.0 0.0 -0.0 -11.7133 17.5366 -16.7209 -1.83034 -31.7218 90.8032 1.21119 -30.9621 0.335474 20.5667 0.260487 -2.60022 2.05021 -26.4523 2.03261 -0.0 0.0 -0.0 13.0898 24.6573 -26.0364 -42.8079 65.0722 -11.0741 0.847494 22.7736 -0.170685 -5.52499 0.227122 -0.668475 -0.547065 16.6358 10.7823 0.0 0.0 0.0 50.6097 -9.16281 -5.30056 -44.9962 -0.814824 6.68308 -2.78257 2.36855 0.412113 27.4094 -0.0 -0.0 -0.0 0.0 -0.0 14.6785 19.2765 -5.11119 -12.9502 -0.313009 -1.95852 39.1664 -13.5487 4.83738 -9.90942 0.0 0.0 0.0 0.0 0.0 
1087.80073835 708.899 -1902.14255042 -10.5197216812 15.0775937445 2.63476723656 4.068 0.122132 -0.28706 4.06803 0.140151 -0.278706 4.06733 0.17787 -0.256285 4.06726 0.135162 -0.281159 -9.421 8.32105 7.81399 -9.28442 10.2763 9.61858 -0.0 0.0 -0.0 -11.7133 17.5366 -16.7209 -1.83034 -31.7218 90.8032 1.21119 -30.9621 0.335474 20.5667 0.260487 -2.60022 2.05021 -26.4523 2.03261 -0.0 0.0 -0.0 13.0898 24.6573 -26.0364 -42.8079 65.0722 -11.0741 0.847494 22.7736 -0.170685 -5.52499 0.227122 -0.668475 -0.547065 16.6358 10.7823 0.0 0.0 0.0 50.6097 -9.16281 -5.30056 -44.9962 -0.814824 6.68308 -2.78257 2.36855 0.412113 27.4094 -0.0 -0.0 -0.0 0.0 -0.0 14.6785 19.2765 -5.11119 -12.9502 -0.313009 -1.95852 39.1664 -13.5487 4.83738 -9.90942 0.0 0.0 0.0 0.0 0.0 
1036.34314717 714.198 -1930.49681136 -10.4565295225 15.6087118075 1.62668472556 3.8735 0.144989 -0.314681 3.87354 0.164719 -0.304817 3.87264 0.206805 -0.277989 3.87257 0.160307 -0.307161 -5.60285 8.8206 11.4578 -5.25436 7.7208 13.1642 -0.0 0.0 -0.0 -11.2751 15.5335 -16.8431 -4.94227 -31.7379 91.4335 1.44461 -35.5861 0.463644 17.0838 0.282387 -2.15596 1.43277 -28.6732 -2.95081 -0.0 0.0 -0.0 13.3898 26.8919 -26.47 -32.8429 64.3602 -21.2207 0.861011 23.099 -0.175953 -7.14609 0.305909 -0.860211 -2.34664 13.9293 22.2209 0.0 0.0 0.0 48.3191 -17.0753 -0.814683 -34.0043 -0.13002 5.14112 -13.7808 17.2174 2.08632 32.9173 -0.0 -0.0 -0.0 0.0 -0.0 11.4386 28.0539 -3.03799 -11.1357 -0.295958 -1.68065 42.4168 -20.7946 5.26616 -4.60927 0.0 0.0 0.0 0.0 0.0 
1020.21296731 714.0 -1944.93360266 -11.0529969881 16.1430696363 1.51084817243 3.92695 0.115602 -0.311502 3.92699 0.13519 -0.303515 3.92625 0.177131 -0.281109 3.92616 0.130512 -0.305555 -3.43773 9.83903 11.8911 -3.06224 8.68314 13.7486 -0.0 0.0 -0.0 -10.3602 15.045 -15.4113 -5.88867 -32.1311 92.184 1.51798 -36.9394 0.507045 14.8533 0.282215 -1.87109 1.07727 -28.4544 -5.1122 -0.0 0.0 -0.0 13.335 26.2545 -26.4222 -29.0163 63.9454 -26.0314 0.886977 23.7196 -0.186269 -7.9297 0.345936 -0.952087 -2.8972 14.1813 26.3686 0.0 0.0 0.0 45.4098 -24.7622 -0.0925526 -27.9435 0.117323 4.24436 -16.5335 26.2858 2.60249 34.7058 -0.0 -0.0 -0.0 0.0 -0.0 10.2666 32.7766 -2.19133 -12.7554 -0.3116 -1.92866 42.2707 -21.6173 5.27553 -1.67482 0.0 0.0 0.0 0.0 0.0 
1014.09768125 714.0 -1940.29021362 -11.0956799281 16.8787496409 1.6610323815 3.92695 0.115602 -0.311502 3.92699 0.13519 -0.303515 3.92625 0.177131 -0.281109 3.92616 0.130512 -0.305555 -3.43773 9.83903 11.8911 -3.06224 8.68314 13.7486 -0.0 0.0 -0.0 -10.3602 15.045 -15.4113 -5.88867 -32.1311 92.184 1.51798 -36.9394 0.507045 14.8533 0.282215 -1.87109 1.07727 -28.4544 -5.1122 -0.0 0.0 -0.0 13.335 26.2545 -26.4222 -29.0163 63.9454 -26.0314 0.886977 23.7196 -0.186269 -7.9297 0.345936 -0.952087 -2.8972 14.1813 26.3686 0.0 0.0 0.0 45.4098 -24.7622 -0.0925526 -27.9435 0.117323 4.24436 -16.5335 26.2858 2.60249 34.7058 -0.0 -0.0 -0.0 0.0 -0.0 10.2666 32.7766 -2.19133 -12.7554 -0.3116 -1.92866 42.2707 -21.6173 5.27553 -1.67482 0.0 0.0 0.0 0.0 0.0 
1004.79529617 714.0 -1932.97992465 -11.1657557956 18.0120992487 1.89476487023 3.92695 0.115602 -0.311502 3.92699 0.13519 -0.303515 3.92625 0.177131 -0.281109 3.92616 0.130512 -0.305555 -3.43773 9.83903 11.8911 -3.06224 8.68314 13.7486 -0.0 0.0 -0.0 -10.3602 15.045 -15.4113 -5.88867 -32.1311 92.184 1.51798 -36.9394 0.507045 14.8533 0.282215 -1.87109 1.07727 -28.4544 -5.1122 -0.0 0.0 -0.0 13.335 26.2545 -26.4222 -29.0163 63.9454 -26.0314 0.886977 23.7196 -0.186269 -7.9297 0.345936 -0.952087 -2.8972 14.1813 26.3686 0.0 0.0 0.0 45.4098 -24.7622 -0.0925526 -27.9435 0.117323 4.24436 -16.5335 26.2858 2.60249 34.7058 -0.0 -0.0 -0.0 0.0 -0.0 10.2666 32.7766 -2.19133 -12.7554 -0.3116 -1.92866 42.2707 -21.6173 5.27553 -1.67482 0.0 0.0 0.0 0.0 0.0 
995.978758723 711.916 -1943.80024831 -11.592519973 17.9610109051 1.90530180101 4.04102 0.0344459 -0.232009 4.04105 0.0491393 -0.229347 4.04083 0.0809335 -0.220146 4.04077 0.0451499 -0.230165 -1.9079 10.6344 12.1537 -1.51518 9.48943 14.1274 -0.0 0.0 -0.0 -9.12976 14.558 -13.4266 -5.77862 -32.0976 92.4563 1.57211 -37.9079 0.539938 12.9743 0.273465 -1.63126 0.862938 -27.8579 -6.21785 -0.0 0.0 -0.0 13.1571 25.8623 -26.0568 -24.812 63.5106 -31.4079 0.954667 25.3097 -0.214358 -8.47814 0.374697 -1.01606 -3.35747 14.4322 29.9588 0.0 0.0 0.0 42.4631 -32.4014 0.472164 -21.2292 0.279005 3.22723 -18.4992 31.6143 3.01717 36.0046 -0.0 -0.0 -0.0 0.0 -0.0 9.91641 38.529 -2.64437 -13.6826 -0.317397 -2.07081 41.5044 -20.2183 5.17059 0.0889362 -0.0 -0.0 0.0 0.0 0.0 
